<!--
SPDX-FileCopyrightText: 2026 Ingo Ruhnke <grumbel@gmail.com>
SPDX-License-Identifier: GPL-3.0-or-later
-->
<svg xmlns="http://www.w3.org/2000/svg" width="32" height="32" viewBox="0 0 32 32">
  <path d="M16 5v8M16 19v8M5 16h8M19 16h8" fill="none" stroke="#f6f5f4" stroke-width="2.75" stroke-linecap="round"/>
  <path d="M16 5v8M16 19v8M5 16h8M19 16h8" fill="none" stroke="#241f31" stroke-width="1.15" stroke-linecap="round"/>
  <circle cx="16" cy="16" r="1.1" fill="#241f31"/>
  <!-- Pen badge BR -->
  <path d="M20.5 28.5l2.2-0.7 6-6 1.4 1.4-6 6z" fill="#3584e4" stroke="#241f31" stroke-width="0.9" stroke-linejoin="round"/>
  <path d="M27.2 21.2l1.4 1.4 1.1-1.1c0.4-0.4 0.4-1 0-1.4l-0.1-0.1c-0.4-0.4-1-0.4-1.4 0z" fill="#1a5fb4"/>
  <path d="M21.2 27.2l0.7-2 1.3 1.3z" fill="#c64600"/>
</svg>
